<svg height="512pt" viewBox="0 -6 512.001 512" width="512pt" xmlns="http://www.w3.org/2000/svg"><path d="m443.511719 499.875h-375.023438c-37.824219 0-68.488281-30.664062-68.488281-68.492188v-10.679687c0-21.757813 17.636719-39.398437 39.394531-39.398437h433.210938c21.757812 0 39.394531 17.640624 39.394531 39.398437v10.679687c0 37.828126-30.664062 68.492188-68.488281 68.492188zm0 0" fill="#f7ef87"/><path d="m481.179688 187.195312h-450.359376c-22.171874 0-37.074218-22.726562-28.234374-43.0625 23.136718-53.222656 66.042968-95.375 119.671874-117.5625 85.640626-35.425781 181.839844-35.425781 267.484376 0 53.625 22.183594 96.535156 64.339844 119.671874 117.5625 8.839844 20.332032-6.0625 43.0625-28.234374 43.0625zm0 0" fill="#f7ef87"/><path d="m280.714844.882812c-53.601563-3.792968-107.871094 4.761719-158.457032 25.6875-53.628906 22.183594-96.535156 64.339844-119.671874 117.5625-8.839844 20.332032 6.066406 43.0625 28.234374 43.0625h272.003907c-53.875-28.386718-84.566407-123.230468-22.109375-186.3125zm0 0" fill="#efd176"/><path d="m465.132812 297.167969h-418.265624c-18.8125 0-34.0625 15.25-34.0625 34.058593v16.019532c0 18.8125 15.25 34.0625 34.0625 34.0625h418.265624c18.8125 0 34.0625-15.25 34.0625-34.0625v-16.019532c0-18.8125-15.25-34.058593-34.0625-34.058593zm0 0" fill="#e1b89a"/><path d="m46.867188 297.167969c-18.8125 0-34.0625 15.25-34.0625 34.058593v16.019532c0 18.8125 15.25 34.0625 34.0625 34.0625h220.800781c-21.464844-19.230469-22.570313-57.820313-8.410157-84.144532h-212.390624zm0 0" fill="#d2996f"/><path d="m351.003906 357.722656c-4.140625 0-7.5-3.359375-7.5-7.5 0-1.921875-1.5625-3.484375-3.484375-3.484375s-3.484375 1.5625-3.484375 3.484375c0 4.140625-3.359375 7.5-7.5 7.5-4.144531 0-7.5-3.359375-7.5-7.5 0-10.191406 8.292969-18.484375 18.484375-18.484375 10.191407 0 18.484375 8.292969 18.484375 18.484375 0 4.144532-3.359375 7.5-7.5 7.5zm0 0" fill="#d2996f"/><path d="m212.664062 363.214844c-10.191406 0-18.484374-8.292969-18.484374-18.484375 0-10.191407 8.292968-18.484375 18.484374-18.484375 4.140626 0 7.5 3.355468 7.5 7.5 0 4.140625-3.359374 7.5-7.5 7.5-1.921874 0-3.484374 1.5625-3.484374 3.484375s1.5625 3.484375 3.484374 3.484375c4.140626 0 7.5 3.359375 7.5 7.5 0 4.144531-3.359374 7.5-7.5 7.5zm0 0" fill="#e1b89a"/><path d="m80.40625 353.832031c-4.730469 0-9.464844-1.804687-13.070312-5.40625-7.207032-7.207031-7.207032-18.933593 0-26.144531 2.929687-2.925781 7.679687-2.925781 10.605468 0 2.929688 2.929688 2.929688 7.679688 0 10.609375-1.355468 1.355469-1.355468 3.570313 0 4.929687.890625.886719 1.925782 1.019532 2.464844 1.019532s1.578125-.132813 2.464844-1.019532c2.929687-2.929687 7.679687-2.929687 10.605468 0 2.929688 2.929688 2.929688 7.675782 0 10.605469-3.601562 3.601563-8.335937 5.40625-13.070312 5.40625zm0 0" fill="#e1b89a"/><path d="m433.867188 352.898438c-1.917969 0-3.839844-.734376-5.300782-2.199219-2.929687-2.929688-2.929687-7.675781 0-10.605469 1.359375-1.359375 1.359375-3.570312 0-4.929688-1.359375-1.359374-3.570312-1.359374-4.929687 0-2.929688 2.929688-7.679688 2.929688-10.609375 0-2.929688-2.929687-2.925782-7.679687 0-10.609374 7.207031-7.207032 18.9375-7.207032 26.144531 0 7.207031 7.210937 7.207031 18.9375 0 26.144531-1.464844 1.464843-3.382813 2.199219-5.304687 2.199219zm0 0" fill="#d2996f"/><path d="m458.539062 187.195312h-405.078124c-10.898438 0-19.734376 8.835938-19.734376 19.734376v15.515624c0 10.898438 8.835938 19.734376 19.734376 19.734376h405.078124c10.898438 0 19.734376-8.835938 19.734376-19.734376v-15.515624c0-10.898438-8.835938-19.734376-19.734376-19.734376zm0 0" fill="#6fce91"/><path d="m248.074219 187.195312h-194.613281c-10.898438 0-19.734376 8.835938-19.734376 19.734376v15.515624c0 10.898438 8.835938 19.734376 19.734376 19.734376h194.613281c-12.683594-7.515626-12.277344-44.265626 0-54.984376zm0 0" fill="#3cb767"/><path d="m39.394531 381.308594c-21.757812 0-39.394531 17.636718-39.394531 39.394531v10.683594c0 37.824219 30.664062 68.488281 68.488281 68.488281h250.496094c-27.414063-19.351562-50.054687-85.457031-27.003906-118.566406zm0 0" fill="#efd176"/><path d="m462.484375 242.179688h-412.96875c-11.84375 0-21.445313 9.601562-21.445313 21.445312v12.09375c0 11.847656 9.601563 21.445312 21.445313 21.445312h412.96875c11.84375 0 21.445313-9.597656 21.445313-21.445312v-12.09375c0-11.84375-9.601563-21.445312-21.445313-21.445312zm0 0" fill="#eda1ab"/><path d="m265.59375 242.179688h-216.078125c-11.84375 0-21.445313 9.601562-21.445313 21.445312v12.09375c0 11.847656 9.601563 21.445312 21.445313 21.445312h222.933594c-11.421875-13.277343-14.257813-38.242187-6.855469-54.984374zm0 0" fill="#e26e7e"/><path d="m230.046875 242.179688-52.167969 79.183593c-8.492187 12.886719-27.398437 12.886719-35.886718 0l-52.167969-79.183593zm0 0" fill="#f7ef87"/><path d="m191.5 143.605469c0-16.585938-16.886719-30.035157-37.71875-30.035157-20.828125 0-37.714844 13.449219-37.714844 30.035157 0 16.589843 16.886719 30.035156 37.714844 30.035156 20.832031 0 37.71875-13.445313 37.71875-30.035156zm0 0" fill="#eda1ab"/><path d="m395.933594 143.605469c0-16.585938-16.886719-30.035157-37.714844-30.035157-20.832031 0-37.71875 13.449219-37.71875 30.035157 0 16.589843 16.886719 30.035156 37.71875 30.035156 20.828125 0 37.714844-13.445313 37.714844-30.035156zm0 0" fill="#eda1ab"/><path d="m193.714844 118.421875c-4.140625 0-7.5-3.355469-7.5-7.5 0-5.765625-4.6875-10.453125-10.449219-10.453125-5.765625 0-10.453125 4.6875-10.453125 10.453125 0 4.144531-3.359375 7.5-7.5 7.5s-7.5-3.355469-7.5-7.5c0-14.035156 11.417969-25.453125 25.453125-25.453125 14.03125 0 25.449219 11.417969 25.449219 25.453125 0 4.144531-3.355469 7.5-7.5 7.5zm0 0" fill="#4e5660"/><path d="m354.1875 118.421875c-4.140625 0-7.5-3.355469-7.5-7.5 0-5.765625-4.6875-10.453125-10.453125-10.453125-5.761719 0-10.449219 4.6875-10.449219 10.453125 0 4.144531-3.359375 7.5-7.5 7.5-4.144531 0-7.5-3.355469-7.5-7.5 0-14.035156 11.417969-25.453125 25.449219-25.453125 14.035156 0 25.453125 11.417969 25.453125 25.453125 0 4.144531-3.355469 7.5-7.5 7.5zm0 0" fill="#4e5660"/><path d="m256 148.082031c-9.464844 0-18.46875-4.101562-24.695312-11.25-2.722657-3.125-2.398438-7.859375.726562-10.582031s7.859375-2.394531 10.582031.726562c3.378907 3.878907 8.257813 6.105469 13.386719 6.105469s10.007812-2.226562 13.390625-6.105469c2.71875-3.121093 7.457031-3.445312 10.582031-.726562 3.121094 2.722656 3.445313 7.457031.726563 10.582031-6.230469 7.148438-15.234375 11.25-24.699219 11.25zm0 0" fill="#4e5660"/><g fill="#d2996f"><path d="m140.898438 69.691406c-4.140626 0-7.5-3.355468-7.5-7.5v-8.5625c0-4.144531 3.359374-7.5 7.5-7.5 4.144531 0 7.5 3.355469 7.5 7.5v8.5625c0 4.144532-3.355469 7.5-7.5 7.5zm0 0"/><path d="m256 76.394531c-4.140625 0-7.5-3.355469-7.5-7.5v-8.566406c0-4.140625 3.359375-7.5 7.5-7.5s7.5 3.359375 7.5 7.5v8.566406c0 4.144531-3.359375 7.5-7.5 7.5zm0 0"/><path d="m71.03125 135.175781c-4.140625 0-7.5-3.355469-7.5-7.5v-8.5625c0-4.144531 3.359375-7.5 7.5-7.5s7.5 3.355469 7.5 7.5v8.5625c0 4.144531-3.359375 7.5-7.5 7.5zm0 0"/><path d="m371.101562 69.691406c-4.144531 0-7.5-3.355468-7.5-7.5v-8.5625c0-4.144531 3.355469-7.5 7.5-7.5 4.140626 0 7.5 3.355469 7.5 7.5v8.5625c0 4.144532-3.359374 7.5-7.5 7.5zm0 0"/><path d="m440.96875 135.175781c-4.140625 0-7.5-3.355469-7.5-7.5v-8.5625c0-4.144531 3.359375-7.5 7.5-7.5s7.5 3.355469 7.5 7.5v8.5625c0 4.144531-3.359375 7.5-7.5 7.5zm0 0"/></g></svg>